<?xml version="1.0" encoding="utf-8"?>
<!-- Generator: Adobe Illustrator 19.1.1, SVG Export Plug-In . SVG Version: 6.00 Build 0)  -->
<svg version="1.1" id="Layer_1" xmlns="http://www.w3.org/2000/svg" xmlns:xlink="http://www.w3.org/1999/xlink" x="0px" y="0px"
	 viewBox="0 0 524.7 86" style="enable-background:new 0 0 524.7 86;" xml:space="preserve">
<style type="text/css">
	.st0{display:none;fill:#BA2D49;}
	.st1{fill:#CC4C5B;}
	.st2{display:none;fill:#FFFFFF;}
	.st3{fill:#FFFFFF;}
	.st4{fill:#005F93;}
</style>
<g>
	<path class="st0" d="M516.9,68c0.1-2,0.2-3.7,0.4-5.6c2.6,0,4.9,0,7.4,0c0,1.9,0,3.6,0,5.6C522.1,68,519.7,68,516.9,68z"/>
	<path class="st1" d="M465.7,61.3c0,2.3,0,5,0,6.9c0,0-15.5,0.1-21.3-0.1c-15.6-0.4-14.9-14.3-14.9-18.2c0-5.9,2.3-16.1,14.7-16.3
		c1.2,0,21.5,0,21.5,0c0,2.5,0,4.8,0,7c-1.3,0.1-12.3-0.1-16.9,0c-5.2,0.1-7.8,1.4-8.4,4.9c-0.6,3.6-0.7,6.1-0.1,11.4
		c0.5,3.9,4,4.4,8.5,4.4C453.6,61.4,465.7,61.3,465.7,61.3z"/>
	<path class="st0" d="M494.2,33.3c3.4,0.7,7.6,1.3,11.5,2.6c2.2,0.8,4.3,2.6,5.6,4.5c6,8.3,2.4,21.7-7,25.7
		c-8.2,3.5-16.7,3.3-25,0.4c-3.8-1.3-6.5-4.3-7.8-8.1c-3.8-10.9,0.5-21,12.1-23.6C486.8,34.1,490.1,33.9,494.2,33.3z M503.5,51.1
		c0.2-6.6-2.2-10.3-7.5-10.9c-2.9-0.3-5.9,0.1-8.8,0.6c-2.9,0.5-4.9,2.5-5.7,5.2c-0.7,2.3-1.1,4.9-0.9,7.2c0.4,5.9,3.5,8.7,9.4,8.9
		c2.1,0.1,4.3-0.1,6.3-0.6c4.3-0.9,6.5-3.9,7-8.1C503.4,52.6,503.4,51.7,503.5,51.1z"/>
	<path class="st0" d="M415.6-26.9c0,1,0,1.8,0,2.6c-0.2,6-0.4,12-0.5,18c-0.1,5,2.5,7.6,7.5,7.7c3,0.1,6.1,0.1,9.1,0.1
		c1,0,1.9,0.1,3.1,0.2c0,1.9,0,3.6,0,5.3c-0.5,0.2-0.8,0.4-1.1,0.4c-5.7-0.1-11.4,0.2-17-0.4c-7.7-0.8-11.5-5.8-11.3-13.5
		c0.2-5.4,0.3-10.8,0.5-16.2c0-1.3,0.2-2.6,0.3-4.1C409.4-26.9,412.3-26.9,415.6-26.9z"/>
	<path class="st1" d="M383.1,33.6v23.9c0.6,11.2,11.3,10.8,11.3,10.8c3.1,0,12.9,0,16.5,0c0-1.8-0.1-4.6,0-6.4c-4.6,0-12.3,0-12.3,0
		c-2.4-0.1-6.6-1.4-6.8-7.8c0-4.2,0-13.1,0.1-20.5H383.1z"/>
	<path class="st0" d="M366.4,33.8c3.3,0,6,0,8.7,0c0,11.5,0,22.8,0,34.2c-3.3,0-6.1,0-9.5,0C365.9,56.6,366.1,45.4,366.4,33.8z"/>
	<rect x="366.4" y="33.6" class="st1" width="8.7" height="34.7"/>
	<path class="st0" d="M337.6,32.3c2-0.1,6.1,0.1,10.8,1.8c2.8,1,5.2,1.9,7.4,4.3c2.9,3.1,3.6,6.7,4,8.8c0.4,2.3,1.4,7.4-1.5,12.4
		c-1.9,3.3-4.6,5-6.3,6c-4.7,2.9-9.2,3.2-12,3.4c-2.1,0.1-6.7,0.1-12-1.8c-2.5-1-4.8-1.8-6.9-4.1c-1.8-1.9-3-4.3-3.6-7.2
		c-0.5-2.3-0.9-4.7-0.7-7.1c0.1-1.8,0.6-6,3.8-9.7c1.8-2.1,3.7-3.1,5.5-4C331.1,32.5,335.6,32.3,337.6,32.3z M350.1,51.4
		c0,0,0-0.9,0-1.5c-0.1-2.2-3.7-10.3-10.6-10.9c-2.6-0.2-4.7,0.7-5.9,1.2c-1.5,0.6-3.9,1.7-5.5,4.3c-1.4,2.4-1.3,4.7-1.2,7
		c0.1,2.1,0.2,4.9,2.2,7.3c1.6,2,3.7,2.7,4.8,3.1c2.2,0.8,4,0.7,5.1,0.7c2.4-0.1,5.9-0.2,8.4-2.8c1.8-1.9,2.3-4.4,2.5-5.3
		C350.1,53.2,350.1,52.1,350.1,51.4z"/>
	<path class="st0" d="M341.6,69.1h-4.7c-9.8,0-17.7-7.9-17.7-17.7v0c0-9.8,7.9-17.7,17.7-17.7h4.7c9.8,0,17.7,7.9,17.7,17.7v0
		C359.3,61.2,351.3,69.1,341.6,69.1z"/>
	<path class="st2" d="M339.1,62.1L339.1,62.1c-5.7,0-10.4-4.6-10.4-10.4v-2.9c0-5.7,4.6-10.4,10.4-10.4h0c5.7,0,10.4,4.6,10.4,10.4
		v2.9C349.4,57.5,344.8,62.1,339.1,62.1z"/>
	<ellipse class="st1" cx="339.2" cy="51" rx="19.9" ry="18.3"/>
	<ellipse class="st3" cx="339.2" cy="51" rx="10.9" ry="12.2"/>
	<ellipse class="st1" cx="492.4" cy="50.9" rx="19.9" ry="18.3"/>
	<ellipse class="st3" cx="492.4" cy="50.9" rx="10.9" ry="12.2"/>
	<path class="st0" d="M494.8,69H490c-9.8,0-17.7-7.9-17.7-17.7v0c0-9.8,7.9-17.7,17.7-17.7h4.7c9.8,0,17.7,7.9,17.7,17.7v0
		C512.4,61.1,504.5,69,494.8,69z"/>
	<path class="st2" d="M492.4,63.1L492.4,63.1c-5.7,0-10.4-4.6-10.4-10.4v-2.9c0-5.7,4.6-10.4,10.4-10.4l0,0
		c5.7,0,10.4,4.6,10.4,10.4v2.9C502.7,58.5,498.1,63.1,492.4,63.1z"/>
</g>
<path class="st4" d="M302.6,48c-9.2,0-18.1,0-26.8,0c-0.4,6.1,1.4,9.1,5,9.1c1.8,0,4.7-0.5,5.8-4.9l15.1,0c-0.2,1-0.3,1.9-0.6,2.7
	c-3,8.6-9.2,13.2-18.1,14.1c-15.1,1.5-25.9-8.1-26.1-23.3c0-3.7,0.4-7.6,1.5-11.1c3-9.8,12-15.7,22.3-15.2
	c7.1,0.3,13.3,2.5,17.4,8.6C302.3,33.9,302.9,40.6,302.6,48z M286.4,39c0.2-2.5-0.4-5.6-1.5-7.2c-1.2-2.5-5.9-2.5-7.3-0.1
	c-1.4,1.9-2,4.6-2,7.2L286.4,39z"/>
<path class="st4" d="M144.5,56.6h4.5c0-7.9,0-15.6,0-23.7c-2.5,0-5.3,0-8,0c-0.1,0.9-0.1,21.6-0.1,31.1
	c-0.1,11.1-4.8,17.5-15.5,20.5c-8.9,2.5-17.7,1.5-26.8-0.9c0.5-4.3,0.9-8.4,1.3-12.7c2.8,0.7,5.3,1.4,7.9,1.8
	c3.1,0.6,6.1,0.2,8.8-1.3c3.1-1.8,4.6-4.5,4.8-8.3c-0.7,0.3-1.1,0.4-1.5,0.6c-13.8,7.8-27.7,0.9-29.4-14.9c-0.9-8,0-15.7,5.3-22.2
	c4.4-5.6,10.4-7.1,17.2-6.1c0.5,0.1,0.9,0.3,1.6,0.6c-1.3,4.6-3.1,8.9-5.4,13c-1.2,2.1-2.6,4.2-3.6,6.5c-2.5,6.1,0.2,12.7,6,15
	c5.8,2.3,12.5-0.6,14.9-6.4c1.4-3.4,1-6.6-0.8-9.7c-1.2-2.1-2.6-4-3.9-6c-2.2-3.3-4.1-8-4.5-11.6c1.7,1.2,3.1,2.2,4.7,3.4
	c0.2-1.3,0.3-2.5,0.5-3.9c15.3,0,30.6,0,46.1,0c0.1,1.4,0.2,2.8,0.4,4.7c1-0.8,1.7-1.3,2.3-1.8c5.2-3.9,11-5.1,17.3-3.5
	c4.6,1.1,7.7,4,8.3,8.7c0.6,5.5,0.6,11,0.8,16.5c0.1,3.5,0,7,0,10.7c2.7,0,5.2,0,8,0c0-7.9,0-16.1,0-24.1l-4.2,0c0-3.8,0-7.5,0-11.5
	c8.1,0,15.9,0,23.9,0c0,11.7,0,23.6,0,35.5h4.4c0,3.9,0,7.9,0,11.8c-17.3,0-34.4,0-51.9,0l0-27.5c0-1.1,0-2.1-0.2-3.2
	c-0.3-1.9-2-3.8-4.2-3.9c-2.3,0-3.6,0.9-4.2,2.9c-0.4,0.7-0.6,2.9-0.5,3.8c0,5.8,0,10,0,16l4.2,0c0,3.8,0,7.9,0,11.9
	c-9.7,0-19.2,0-28.8,0C144.5,64.6,144.5,60.5,144.5,56.6z"/>
<path class="st4" d="M206.7,15.7c0-5.2,0-10.3,0-15.7c6.2,0,12.3,0,18.7,0c0,5.2,0,10.3,0,15.7C219.3,15.7,213.1,15.7,206.7,15.7z"
	/>
<path class="st4" d="M233.7,20.9c0-4.5,0-9.4,0-14.1c6.2,0,12,0,18.2,0c0,4.3,0,9.4,0,14.1l5.1,0c0,3.9,0,7.4,0,11.3h-5
	c0,7.9,0,16.2,0,24.3h4.7c0,3.8,0,7.7,0,11.7c-7.8,0-15.5,0-23.4,0c0-11.9,0-24.1,0-36l-3.6,0c0-3.8,0-7.4,0-11.3L233.7,20.9z"/>
<path class="st4" d="M62,68.1c0-3.9,0-7.9,0-11.8l4.4,0c0-7.9,0.1-16.2,0.1-24.3L62,32c0-3.7,0-7.3,0-11.1c8.4,0,16.5,0,24.9,0
	c0,11.8,0,23.5,0,35.4l4.3,0c0,3.9,0.1,8,0.1,11.8C81.3,68.1,71.8,68.1,62,68.1z"/>
<path class="st4" d="M66.4,15.8c0-5.2,0-10.3,0-15.7c6.7,0,13.5,0,20.5,0c0,5.2,0,10.3,0,15.7C80.1,15.8,73.4,15.8,66.4,15.8z"/>
<path class="st4" d="M0,68.2c0-5,0-10.1,0-15.3c2.2,0,4.2,0,6.6,0c0-13.1-0.1-25.8-0.1-39l-6.1,0c0-4.6,0-9.1,0-13.8
	c12.6,0,25.3,0,38.1,0c0,4.7,0,9,0,13.8c-2.6,0-5,0-7.7,0c0,13.1,0,25.9,0,39c3.6,0,7.3,0,11.4,0c0-3.7,0-7.5,0-11.4
	c5.7,0,11.1,0,16.8,0c0,8.8,0,17.6,0,26.7C39.3,68.2,19.7,68.2,0,68.2z"/>
<rect x="516.5" y="62.7" class="st1" width="8.2" height="5.6"/>
</svg>
